/* XPM */
static char *_ebc98af28974f4aef79260b26d16510tF40p4XYyQDoL1iZ[] = {
/* columns rows colors chars-per-pixel */
"59 59 6 1 ",
"  c gray74",
". c gray88",
"X c #EEEEEE",
"o c #ECEFF1",
"O c gray96",
"+ c gray98",
/* pixels */
"oo++++oooooooo.....oooooooooOO+++oooooooooooooooo.ooo+ooooo",
"oooo++oooooooooooooooooooOOOOOooooooooooo++ooooo..oo++ooooo",
"oo+++............ooo+++++++oOOOooooo+++++++..oooooooooooooo",
"oo+++.oo+ooo   ooooo+++++++oOOOOOOOO++++++oo++++OOooooooooo",
".oo++o...... .......oo++++ooooOOOOOO+ooo+OOOOOOOOOooooo....",
"...ooooooooooooooooooooo+oooooo++++++++++OOOOOOOOOoooo.o...",
"..oooooooooo+++++++ooooo+oooooo+++++++++++++++...ooooooooo.",
"+ooooooooo++ooooo+oooo...........ooo++++oooo..ooo++++++++++",
"+++ooooooooooooooooooo++ooo...++++++oooooo..oooooooooooooo+",
"oo+oooooooooo...ooooo+++ooo.++++++++oooo .oooooooooooo++++o",
"ooooooo......ooooooo++X+o+++++++++ooooo. ooooooooooo++ooooo",
"ooooooooo..ooooooooo+oXoo+++++++ooooooo.oooo+oooooooooooooo",
"oooooo...oo+  ooooooooXooXoooooooooooooo++++++++++++++++ooo",
".oo+++++++++++++++++++XooXoooooooooooooo++++++++++++++++...",
"o.ooooooooooo+oo+++oooX++X+++++ooooooooooooo+o+o++++++..ooo",
"o++++++++OOOOOOOOoo++oXooX+++oooooo....ooooooo+++++++oooooo",
"o++++++OOOOOOOOOOooo++X++XXXXXXX...oo.+oo++++++++oooooooooo",
"oOOOOOOOOOOOOOOOOOOOOOOOOOOOOX..oooo.o+o+++++++oooooooooooo",
"OOOOOOOOOOOOOOOOOOOOOOOOOOOOOoooOOOooo+o+++++ooooo+oooooOOO",
"OOoooo...ooOOOOOOOOOOOOOO+++OOOOOOOooo+o+ooooooooo+oooooooO",
"+.....oooooooOOOOOOO++++++++OOOOOOOOOO+++o+++++++++++++++++",
".ooo.ooo+ooooOOooo++++ooo+++OOOXooOOOO+++++++++++++++++++++",
"....oooo+oooooooooo++++...++oooooooo+..+++++++oo......o++..",
"oooooo+++oOOOOOOooo+oo...o.ooooooooo+....oooo  ooo.ooooo..o",
"ooooo+oo++OOOOOOOOOooo...OO.....ooo+o+o+oooo..   .+oooooooo",
"oooo.......ooooOOOOooOOOOOOooooooo+o+o+oooo.....oo+oooooooo",
"ooo.....oooooooooooOOOOOOOooooo++++o+o++++OOOOOOO++++oooooo",
"...ooooooooo+++oXOOOOOXooooooo+++++o++o+OOOOOOOOO+OOOOOOOOo",
".ooooooooo+++++OOOOOoooo++oo..+++++..OOOOOOOOOOoooOOOOOOOO.",
".++ooo++++++++OOOOoo++++++++++oo++++OOOOOOOOooooooooo+++++.",
"++oooo+++++++OOO+++++++++++++++o++++OOOOOOooo ooooooo++++++",
"ooooooo++XXX+OO++++++++ o++++o+o+++++OOOOOooo oooooooooo+++",
"ooooooo....oooooooo..++++++ooo++++oOOOOOOoooooooOOOOOOOOOoo",
"oooo...ooooooooooo.oooooooooooOOOOOOOOoooo++++OOOOOOOOOOOoo",
"o...ooooooooOOOOOOOOOOOOOOOOOOOOOOOO+o++oo++++OOOOOOOoooooo",
".ooooooOOOOOOOOOOOOOOOOOOOOOOOOO+oooooooooooooOOOOOooooooo.",
"ooOOOOOOOOOOOooo.oOOOOOOOOOooooo+oooooOOOooOOOOOO++ooooo..o",
"OOOOOOOO++OOOOOOOOOOOOOO+ooooooo+OOOOOOOOoOOOOO++o+oOOOOooo",
"OOOoo+++++OOOOOOOOOo+++++ooOOOoOOOOOOOOooOOOO.o+OOOOOOOOOOo",
"oooooooo.++.....ooo++++ooOOOOO+OOOOOOOooOOO...+oOOOOOOOOOOO",
"oooooo...........++++o++OOOO+o+oooooooOOOO++.ooooooooooooOO",
"oooooo......+++..++++++OOOoo++ooooo...OOO+++++.++++++++++oo",
"oooo+++++++++++++++++OOOOO++oooooo.oooooooooo.ooooooooooooo",
"..oo++++++++++++++++OOOO++ooooooo.ooooooooooo.oooooooooo.oo",
".oooooooo+++++++OOOOOO+++ooooooooo..++.......   ........ooo",
"ooooooooo++++.OOOOOO+oo++ooOOOOOOOOO+++++++++o....ooooooooo",
"oooooooo.....OOOOO+oooOOOOOOOOOOOOOOOOO++++++..OOOOOOOOOOoo",
"ooo..........OO++oooooOOOOOOOOOOOOOOOOOOOOOOOOOOOOOOOOOOOOo",
"OOoOo++..+++++oo+++++ooooooooooooooooOOOOOOOOOOOO++++++++OO",
"OOOO+++++++++++++++++.ooooooooooooooooooo+ooooooo++++++++oO",
"OOoo++o++++++++++..........ooooooooooooo++ooooooooooooooooo",
"oooo++ooooooo..o++oooo...ooooo+++++++++++++++oooooooooooooo",
"oooooo...+ooo.oooo+++.++oooooo++++++++++o+++++++++++++++ooo",
"oo++++...+ooooooooooooOOOOOOOOooooo.++++..++++++++++++++.oo",
"+++++++++oooooooooooooOOOOOOOOOOOooo++...++o.....oo.OOOOooo",
"+++o.............+ooo++++ooooOOOOoooo.....+oooOOOOOOOOOO+++",
"+ooooo.ooooo+......++++++ooooooooooo..oooooooOOOOOOO..+++++",
"ooooo..ooooooooooo.++++oooooOOoooooooooooooooOO.OOoo..+++oo",
"ooooo++++ooooooooo.ooooooooooOOOOooooooooooooooo..ooo++oooo"
};
