/* XPM */
static char *_d621797e93f403cf9951d3a4bd299bfQFsKwBcf9F6UUHrk[] = {
/* columns rows colors chars-per-pixel */
"59 59 3 1 ",
"  c None",
". c black",
"X c white",
/* pixels */
"                                                           ",
"                                                           ",
"                                                           ",
"                              ...........                  ",
"                          ......XXXXXXXXX..                ",
"                      .....XXXXX...XXXXXXX..               ",
"                   ....XXXXXXXXXXXX..XXXXXX...             ",
"                 ......................XXXXXX..            ",
"               ..XXXXXXXXXXXXXXXXXXXXX...........          ",
"             ..XXXXXXXXXXXXXXXXXXXXXXXX...XXXXXX..         ",
"           ..XXXXXXXXXXXXXXXXXXXXXXXXXXXX.XXXXXXXX.        ",
"          ..XXXXXXXXXXXXXXX............XXX.XXXXXXXX.       ",
"        ..XXXXXXXXXXX......XXXXXXXXXXX......XXXXXXXX..     ",
"       ..XXXXXXXXX...XXXXXX....XXXXXXXXXXX....XXXXXXXX.    ",
"       .XXXXXXX...XXXXXXXXXXXXX..XXXXXXXXXX.....XXXXXXX.   ",
"      .XXXXX...XXXXXXXXXXXXXXXXX...XXXXXXXXX..X....XXXX.   ",
"      .XX....XXXXXXXXXXXXXXXXXXXXX..XXXXXXXXX..XXX...XXX.  ",
"     .....XXXXXXXXXXXXXXXXXXXXXXXXXX.XXXXXXXXX.XXXXX...X.  ",
"     .XXXXXXXXXXXXXXXXXXXXXXXXXXXXXXX.XXXXXXXX.XXXXXX.X..  ",
"     ...........XXXXXXXXXXXXXXXXXXXXXX.XXXXXXXX.XXXXX.XX.. ",
"   ....XXXXXXXX....XXXXXXXXXXXXXXXXXXX..XXXXXXX.XXXXX.XXX. ",
"   ......XXXXXXXXXX...XXXXXXXXXXXXXXXXX..XXXXXX.XXXXX.XXXX.",
"  ...XXXX..XXXXXXXXXXX..XXXXXXXXXXXXXXXX.XXXXXXX.XXXX.XXXX.",
"  .X.XXXXX..XXXXXXXXXXXX...XXXXXXXXXXXXXX.XXXXXX.XXXX.XXXX.",
"  .XX..XXXX..XXXXXXXXXXXXXX..XXXXXXXXXXXXX.XXXXX.XXXX.XXXX.",
"  ..XX.XXX..X..XXXXXXXXXXXX....XXXXXXXXXXX.XXXXX..XXX.XXXX.",
"   .XXX.XX.XXX.XXXXXXXXXXXX.XX..XXXXXXXXXXX.XXXXX.XXX.XXXX.",
"   .XXX.XX.XXX..XXXXXXXXXXX.XXXX..XXXXXXXXX.XXXXX.XXX.XXXX.",
"   .XXX.X..XXXX..XXXXXXXXXX.XXXXX..XXXXXXXXX.XXXX.XXX.XXXX.",
"   .......XXXXX..XXXXXXXXX..XXXXXX..XXXXXXXX.XXXXX.XX.XXXX.",
"   ..XXX........X.XXXXXXXX.XXXXXXXX..XXXXXXX..XXXX.X.XXXXX.",
"    .XXX.XXXXX..X.XXXXXXXX.XXXXXXXXXX.XXXXXXX.XXXX.X.XXXXX.",
"    .XX...XXXXX..X.XXXXXXX.XXXXXXXXXXX.XXXXXX.XXXX.X.XXXXX.",
"    .XX.X.XXXXX..XX.XXXXX.XXXXXXXXXXXXX.XXXXX..XXX.X.XXXXX.",
"    .X.XX.XXXX...XXX.XXXX.XXXXXXXXXXXXX..XXXXX.XXXX.XXXXX. ",
"    ...XX.XXXX.X.XXX..XX.XXXXXXXXXXXXX....XXXX.XXXX.XXXXX. ",
"    ..XXXX.XX..X.XXXX.X.XXXXXXXXXXXXXX.XX..XXX.XXX..XXXX.. ",
"    .XXXXX.XX.XX.XXXXX..XXXXXXXXXXXXXX.XXX.XXX.XX.X.XXXX.  ",
"    .XXXXX.X..XX.XXXX..XXXXXXXXXXXXXX..XXX..XX.X..X.XXXX.  ",
"    .XXXXX...XX..XX..XX.XXXXXXXXXXXX..XXXXX.XX.X.XX.XXXX.  ",
"    .XXXXX..XXX.XX..XXX..XXXXXXXXXX..XXXXXX..X...XX.XXX..  ",
"   ..XXXX..XXXX.X..XXXXX.XXXXXXXXXX.XXXXXXXX.X..XXX.XX..   ",
"   .XXXX...XXX.X.XXXXXXX.XXXXXXXXX.XXXXXXXXX.X.XXXX.XX..   ",
"   .XX...X.XX..XXXXXXXXX.XXXXXXX..XXXXXXXXXX...XXXX.X..    ",
"  ..X..XXX.X..XXXXXXXXXXX.XXXXX..XXXXXXXXXXXX..XXXX..      ",
"  ...XXXXX...XXXXXXXXXXXX.XXX...XXXXXXXXXXXX...XXX..       ",
"  ..XXXX....XXXXXXXXXXXXX.XX.XXXXXXXXXXXXXX....XX...       ",
"  .......XXXXXXXXXXXXXXXX...XXXXXXXXXXXXXX..X.XX..         ",
"   ..XXXXXXXXXXXXXXXXXXX...XXXXXXXXXXXXXX..XX.X..          ",
"    ..XXXXXXXXXXXXXXXX..XX.XXXXXXXXXXXXX..XXX...           ",
"      .XXXXXXXXXXXX...XXXX.XXXXXXXXXXXXX.XXXX..            ",
"      .............XXXXXXX.XXXXXXXXXXX..XXXX...            ",
"        ...XXXXXXXXXXXXXXX.XXXXXXXXX..XXXXX..              ",
"          ..XXXXXXXXXXXXX.XXXXXXXX..XXXXXX..               ",
"           ........XXXXXX.XXXXXX..XXXXX...                 ",
"                  ........XXX....XXXX...                   ",
"                          ............                     ",
"                                                           ",
"                                                           "
};
