/* XPM */
static char *_54308c2ee9041328cdc0aa5363d07d3yrIJUnTYQUS8y3ER[] = {
/* columns rows colors chars-per-pixel */
"59 59 3 1 ",
"  c None",
". c black",
"X c white",
/* pixels */
"                                                           ",
"                                                           ",
"                                                           ",
"                              ...........                  ",
"                          ......XXXXXXXXX..                ",
"                      .....XXXXX...XXXXXXX..               ",
"                   ....XXXXXXXXXXXX..XXXXXX...             ",
"                 ......................XXXXXX..            ",
"               ..XXXXXXXXXXXXXXXXXXXXX...........          ",
"             ..XXXXXXXXXXXXXXXXXXXXXXXX...XXXXXX..         ",
"           ..XXXXXXXXXXXXXXXXXXXXXXXXXXXX.XXXXXXXX.        ",
"          ..XXXXXXXXXXXXXXX............XXX.XXXXXXXX.       ",
"        ..XXXXXXXXXXX......XXXXXXXXXXX......XXXXXXXX..     ",
"       ..XXXXXXXXX...XXXXXX....XXXXXXXXXXX....XXXXXXXX.    ",
"       .XXXXXXX...XXXXXXXXXXXXX..XXXXXXXXXX.....XXXXXXX.   ",
"      .XXXXX...XXXXXXXXXXXXXXXXX...XXXXXXXXX..X....XXXX.   ",
"      .XX....XXXXXXXXXXXXXXXXXXXXX..XXXXXXXXX..XXX...XXX.  ",
"     .....XXXXXXXXXXXXXXXXXXXXXXXXXX.XXXXXXXXX.XXXXX...X.  ",
"     .XXXXXXXXXXXXXXXXXXXXXXXXXXXXXXX.XXXXXXXX.XXXXXX.X..  ",
"     ...........XXXXXXXXXXXXXXXXXXXXXX.XXXXXXXX.XXXXX.XX.. ",
"   ....XXXXXXXX....XXXXXXXXXXXXXXXXXXX..XXXXXXX.XXXXX.XXX. ",
"   ......XXXXXXXXXX...XXXXXXXXXXXXXXXXX..XXXXXX.XXXXX.XXXX.",
"  .........XXXXXXXXXXX..XXXXXXXXXXXXXXXX.XXXXXXX.XXXX.XXXX.",
"  ..........XXXXXXXXXXXX...XXXXXXXXXXXXXX.XXXXXX.XXXX.XXXX.",
"  ...........XXXXXXXXXXXXXX..XXXXXXXXXXXXX.XXXXX.XXXX.XXXX.",
"  .............XXXXXXXXXXXX....XXXXXXXXXXX.XXXXX..XXX.XXXX.",
"   ............XXXXXXXXXXXX.XX..XXXXXXXXXXX.XXXXX.XXX.XXXX.",
"   .............XXXXXXXXXXX.XXXX..XXXXXXXXX.XXXXX.XXX.XXXX.",
"   ..............XXXXXXXXXX.XXXXX..XXXXXXXXX.XXXX.XXX.XXXX.",
"   ..............XXXXXXXXX..XXXXXX..XXXXXXXX.XXXXX.XX.XXXX.",
"   ...............XXXXXXXX.XXXXXXXX..XXXXXXX..XXXX.X.XXXXX.",
"    ..............XXXXXXXX.XXXXXXXXXX.XXXXXXX.XXXX.X.XXXXX.",
"    ...............XXXXXXX.XXXXXXXXXXX.XXXXXX.XXXX.X.XXXXX.",
"    ................XXXXX.XXXXXXXXXXXXX.XXXXX..XXX.X.XXXXX.",
"    .................XXXX.XXXXXXXXXXXXX..XXXXX.XXXX.XXXXX. ",
"    ..................XX.XXXXXXXXXXXXX....XXXX.XXXX.XXXXX. ",
"    ..................X.XXXXXXXXXXXXXX.XX..XXX.XXX..XXXX.. ",
"    ....................XXXXXXXXXXXXXX.XXX.XXX.XX.X.XXXX.  ",
"    ...................XXXXXXXXXXXXXX..XXX..XX.X..X.XXXX.  ",
"    .................XX.XXXXXXXXXXXX..XXXXX.XX.X.XX.XXXX.  ",
"    ................XXX..XXXXXXXXXX..XXXXXX..X...XX.XXX..  ",
"   ................XXXXX.XXXXXXXXXX.XXXXXXXX.X..XXX.XX..   ",
"   ..............XXXXXXX.XXXXXXXXX.XXXXXXXXX.X.XXXX.XX..   ",
"   ............XXXXXXXXX.XXXXXXX..XXXXXXXXXX...XXXX.X..    ",
"  ............XXXXXXXXXXX.XXXXX..XXXXXXXXXXXX..XXXX..      ",
"  ...........XXXXXXXXXXXX.XXX...XXXXXXXXXXXX...XXX..       ",
"  ..........XXXXXXXXXXXXX.XX.XXXXXXXXXXXXXX....XX...       ",
"  .......XXXXXXXXXXXXXXXX...XXXXXXXXXXXXXX..X.XX..         ",
"   ..XXXXXXXXXXXXXXXXXXX...XXXXXXXXXXXXXX..XX.X..          ",
"    ..XXXXXXXXXXXXXXXX..XX.XXXXXXXXXXXXX..XXX...           ",
"      .XXXXXXXXXXXX...XXXX.XXXXXXXXXXXXX.XXXX..            ",
"      .............XXXXXXX.XXXXXXXXXXX..XXXX...            ",
"        ...XXXXXXXXXXXXXXX.XXXXXXXXX..XXXXX..              ",
"          ..XXXXXXXXXXXXX.XXXXXXXX..XXXXXX..               ",
"           ........XXXXXX.XXXXXX..XXXXX...                 ",
"                  ........XXX....XXXX...                   ",
"                          ............                     ",
"                                                           ",
"                                                           "
};
