/* XPM */
static char *_d3bdcb92388462ce25807efff403ec1fwmPsg3wr6yjAeG2[] = {
/* columns rows colors chars-per-pixel */
"59 59 6 1 ",
"  c None",
". c black",
"X c gray26",
"o c gray46",
"O c gray74",
"+ c white",
/* pixels */
"                                                           ",
"                                                           ",
"                                                           ",
"                                                           ",
"                                                           ",
"                                                           ",
"                                                           ",
"                                                           ",
"                                                           ",
"                                                           ",
"                               ............                ",
"                               ............                ",
"                               ............                ",
"                            ...++++++++++++...             ",
"                            ...++++++++++++...             ",
"                            ...++++++++++++...             ",
"          oooOOO         ...+++++++++++++++...             ",
"          oooOOO         ...+++++++++++++++...             ",
"          oooOOO         ...+++++++++++++++...             ",
"       ooooooooo......   ...+++++++++++++++......          ",
"       ooooooooo......   ...+++++++++++++++......          ",
"       ooooooooo......   ...+++++++++++++++......          ",
"       XXXXXoooo...............++ +++...............       ",
"       XXXXXoooo...............++++++...............       ",
"       XXXXXoooo...............++++++...............       ",
"    ...................................................    ",
"    ...................................................    ",
"    ...................................................    ",
"    ...................................................    ",
"    ...................................................    ",
"    ...................................................    ",
"       ooooooOOO...............++++++...............       ",
"       ooooooOOO...............++++++...............       ",
"       ooooooOOO...............++++++...............       ",
"       XXXoooooo......   ...+++++++++++++++......          ",
"       XXXoooooo......   ...+++++++++++++++......          ",
"       XXXoooooo......   ...+++++++++++++++......          ",
"          XXXooo         ...+++++++++++++++...             ",
"          XXXooo         ...+++++++++++++++...             ",
"          XXXooo         ...+++++++++++++++...             ",
"                            ...++++++++++++...             ",
"                            ...++++++++++++...             ",
"                            ...++++++++++++...             ",
"                               ............                ",
"                               ............                ",
"                               ............                ",
"                                                           ",
"                                                           ",
"                                                           ",
"                                                           ",
"                                                           ",
"                                                           ",
"                                                           ",
"                                                           ",
"                                                           ",
"                                                           ",
"                                                           ",
"                                                           ",
"                                                           "
};
