/* XPM */
static char *_e3ecd68cc7c4c56e52f2c02244052123kYxFmY03omb7xzJ[] = {
/* columns rows colors chars-per-pixel */
"59 59 6 1 ",
"  c None",
". c black",
"X c gray26",
"o c gray46",
"O c gray74",
"+ c white",
/* pixels */
"                                                           ",
"                                                           ",
"                                                           ",
"                                                           ",
"                                                           ",
"                                                           ",
"                                                           ",
"                                                           ",
"                                                           ",
"                                                           ",
"                                                           ",
"                                                           ",
"                                                           ",
"                               ...............             ",
"                               ...............             ",
"                               ...............             ",
"          oooOOO            ...+++++++++++++++...          ",
"          oooOOO            ...+++++++++++++++...          ",
"          oooOOO            ...+++++++++++++++...          ",
"       ooooooooo......   ...++++++++++++++++++...          ",
"       ooooooooo......   ...++++++++++++++++++...          ",
"       ooooooooo......   ...++++++++++++++++++...          ",
"       XXXXXoooo...............++ +++++++++.........       ",
"       XXXXXoooo...............++++++++++++.........       ",
"       XXXXXoooo...............++++++++++++.........       ",
"    ...................................................    ",
"    ...................................................    ",
"    ...................................................    ",
"    ...................................................    ",
"    ...................................................    ",
"    ...................................................    ",
"       ooooooOOO...............++++++++++++.........       ",
"       ooooooOOO...............++++++++++++.........       ",
"       ooooooOOO...............++++++++++++.........       ",
"       XXXoooooo......   ...++++++++++++++++++...          ",
"       XXXoooooo......   ...++++++++++++++++++...          ",
"       XXXoooooo......   ...++++++++++++++++++...          ",
"          XXXooo            ...+++++++++++++++...          ",
"          XXXooo            ...+++++++++++++++...          ",
"          XXXooo            ...+++++++++++++++...          ",
"                               ...............             ",
"                               ...............             ",
"                               ...............             ",
"                                                           ",
"                                                           ",
"                                                           ",
"                                                           ",
"                                                           ",
"                                                           ",
"                                                           ",
"                                                           ",
"                                                           ",
"                                                           ",
"                                                           ",
"                                                           ",
"                                                           ",
"                                                           ",
"                                                           ",
"                                                           "
};
