/* XPM */
static char *_d74b49e1c0a4282b0974a61c9708803m7lOdtHNRF5RB1fz[] = {
/* columns rows colors chars-per-pixel */
"59 59 6 1 ",
"  c None",
". c black",
"X c #B71C1C",
"o c #FFC107",
"O c #FFEB3B",
"+ c white",
/* pixels */
"                                                           ",
"                                                           ",
"                                                           ",
"                                                           ",
"                                                           ",
"                                                           ",
"                                                           ",
"                                                           ",
"                                                           ",
"                                                           ",
"                                                           ",
"                                                           ",
"                                                           ",
"                                           ...             ",
"                                           ...             ",
"                                           ...             ",
"                         ...   ...         ...             ",
"                         ...   ...         ...             ",
"                         ...   ...         ...             ",
"    ...               ...         ...      ...             ",
"    ...               ...         ...      ...             ",
"    .....             ...         ...      ...             ",
"     .....            ...............   ...                ",
"     .....            ...............   ...                ",
"     ........   ...   ...............   ...                ",
"       ..................oOO...oOO......                   ",
"        ...............O.OOO...OOO.O....             ...   ",
"          ......   ......OO+...OO+......             ...   ",
"             ..........oO.........oO.......         ....   ",
"             ..........O+...O.O...O+..........   ......    ",
"             .................................   ......    ",
"                   .....................   ..........      ",
"                   .....................      ......       ",
"     ...           .....................      ......       ",
"     ...        .................................          ",
"     ......     ..........X.....X................          ",
"        ...  .............X..X..X................          ",
"        ........   ..........X..........                   ",
"          ......   .....X...XXX...X.....                   ",
"          ....     ......XXXX.XXXX......                   ",
"          ...   ...   .....XX.XX..... ...                  ",
"          ...   ...   ....X..X..X.... ...                  ",
"          ...   ...   ............... ...                  ",
"             ...                        ...                ",
"             ...                        ...                ",
"             ...                        .....              ",
"                                          ...              ",
"                                          ...              ",
"                                                           ",
"                                                           ",
"                                                           ",
"                                                           ",
"                                                           ",
"                                                           ",
"                                                           ",
"                                                           ",
"                                                           ",
"                                                           ",
"                                                           "
};
