/* XPM */
static char *ec9287b19df040beafaa6dddb1a864eaGCux4VC9Cx8Oj7Q6[] = {
/* columns rows colors chars-per-pixel */
"59 59 6 1 ",
"  c None",
". c black",
"X c #B71C1C",
"o c #FFC107",
"O c #FFEB3B",
"+ c white",
/* pixels */
"                                                           ",
"                                                           ",
"                                                           ",
"                                                           ",
"                                                           ",
"                                                           ",
"                                                           ",
"                                                           ",
"                                                           ",
"                                                           ",
"                                                           ",
"                                                           ",
"                                                           ",
"             ...                                           ",
"             ...                                           ",
"             ...                                           ",
"             ...         ...   ...                         ",
"             ...         ...   ...                         ",
"             ...         ...   ...                         ",
"             ...      ...         ...               ...    ",
"             ...      ...         ...               ...    ",
"             ...      ...         ...             .....    ",
"                ...   ...............            .....     ",
"                ...   ...............            .....     ",
"                ...   ...............   ...   ........     ",
"                   ......OOo...OOo..................       ",
"   ...             ....O.OOO...OOO.O...............        ",
"   ...             ......+OO...+OO......   ......          ",
"   ....         .......Oo.........Oo..........             ",
"    ......   ..........+O...O.O...+O..........             ",
"    ......   .................................             ",
"      ..........   .....................                   ",
"       ......      .....................                   ",
"       ......      .....................           ...     ",
"          .................................        ...     ",
"          ................X.....X..........     ......     ",
"          ................X..X..X.............  ...        ",
"                   ..........X..........   ........        ",
"                   .....X...XXX...X.....   ......          ",
"                   ......XXXX.XXXX......     ....          ",
"                  ... .....XX.XX.....   ...   ...          ",
"                  ... ....X..X..X....   ...   ...          ",
"                  ... ...............   ...   ...          ",
"                ...                        ...             ",
"                ...                        ...             ",
"              .....                        ...             ",
"              ...                                          ",
"              ...                                          ",
"                                                           ",
"                                                           ",
"                                                           ",
"                                                           ",
"                                                           ",
"                                                           ",
"                                                           ",
"                                                           ",
"                                                           ",
"                                                           ",
"                                                           "
};
