/* XPM */
static char *f2bd621399564f8ab75f113ab2f421e72qshZZBQyDPFSsNx[] = {
/* columns rows colors chars-per-pixel */
"59 59 6 1 ",
"  c None",
". c black",
"X c #B71C1C",
"o c #FFC107",
"O c #FFEB3B",
"+ c white",
/* pixels */
"                                                           ",
"                                                           ",
"                                                           ",
"                                                           ",
"                                                           ",
"                                                           ",
"                                                           ",
"                                                           ",
"                                                           ",
"                                                           ",
"                                                           ",
"                                          ...              ",
"                                          ...              ",
"             ...                        .....              ",
"             ...                        ...                ",
"             ...                        ...                ",
"          ...   ...   ............... ...                  ",
"          ...   ...   ....X..X..X.... ...                  ",
"          ...   ...   .....XX.XX..... ...                  ",
"          ....     ......XXXX.XXXX......                   ",
"          ......   .....X...XXX...X.....                   ",
"        ........   ..........X..........                   ",
"        ...  .............X..X..X................          ",
"     ......     ..........X.....X................          ",
"     ...        .................................          ",
"     ...           .....................      ......       ",
"                   .....................      ......       ",
"                   .....................   ..........      ",
"             .................................   ......    ",
"             ..........O+...O.O...O+..........   ......    ",
"             ..........oO.........oO.......         ....   ",
"          ......   ......OO+...OO+......             ...   ",
"        ...............O.OOO...OOO.O....             ...   ",
"       ..................oOO...oOO......                   ",
"     ........   ...   ...............   ...                ",
"     .....            ...............   ...                ",
"     .....            ...............   ...                ",
"    .....             ...         ...      ...             ",
"    ...               ...         ...      ...             ",
"    ...               ...         ...      ...             ",
"                         ...   ...         ...             ",
"                         ...   ...         ...             ",
"                         ...   ...         ...             ",
"                                           ...             ",
"                                           ...             ",
"                                           ...             ",
"                                                           ",
"                                                           ",
"                                                           ",
"                                                           ",
"                                                           ",
"                                                           ",
"                                                           ",
"                                                           ",
"                                                           ",
"                                                           ",
"                                                           ",
"                                                           ",
"                                                           "
};
