/* XPM */
static char *_16c1b0646644efb92f75330aba689d4GXn63N6ZpE2PJYBk[] = {
/* columns rows colors chars-per-pixel */
"59 59 6 1 ",
"  c None",
". c black",
"X c #B71C1C",
"o c #FFC107",
"O c #FFEB3B",
"+ c white",
/* pixels */
"                                                           ",
"                                                           ",
"                                                           ",
"                          ...                              ",
"                          .....                            ",
"                          .....                            ",
"                            ....                           ",
"                             .....                         ",
"                             .....                         ",
"                             .....                         ",
"                               ......                      ",
"                               ......                      ",
"                               ......                      ",
"             .........       ...  ...                      ",
"             .........       ...  ...        ...           ",
"             .........       ...  ...        ...           ",
"                      ...   ...   ...      .....           ",
"                      ...   ...   ...      ...             ",
"                      ...   ...   ...   ......             ",
"                         ..................                ",
"                         ..................                ",
"                         ...............                   ",
"                   ........................                ",
"                   .......O.O+.............                ",
"                   .........oO........X....                ",
"                ...   ...OO+...........X...                ",
"                ...   ...OOO.......XX..X.X.                ",
"                ...   ...oOO...........XX..                ",
"                      .......O........XXX..                ",
"                      ..............XXX..X.                ",
"                      .......O........XXX..                ",
"                ...   ...OO+...........XX..                ",
"                ...   ...OOO.......XX..X.X.                ",
"                ...   ...oOO...........X...                ",
"                   .........O+........X....                ",
"                   .......O.oO.............                ",
"                   ........................                ",
"                         ...............                   ",
"                         ...............                   ",
"                         ...............                   ",
"                        ... ...   ...   ...                ",
"                        ... ...   ...   ...                ",
"                        ... ...   ...   ...                ",
"                         ......     ...    ...             ",
"                         ......     ...    ...             ",
"                         ......     ....   ...             ",
"                        ....         ......                ",
"                        ....         ......                ",
"                        ....       ........                ",
"                      .....        ...                     ",
"                     ......        ...                     ",
"                     .....       ...                       ",
"                   ......        ...                       ",
"                   ......        ...                       ",
"                   ...                                     ",
"                                                           ",
"                                                           ",
"                                                           ",
"                                                           "
};
