/* XPM */
static char *_bb22d2405fa4d9486878ff02e775c43XipRMxzragAoIEsl[] = {
/* columns rows colors chars-per-pixel */
"59 59 6 1 ",
"  c None",
". c black",
"X c #B71C1C",
"o c #FFC107",
"O c #FFEB3B",
"+ c white",
/* pixels */
"                                                           ",
"                                                           ",
"                                                           ",
"                                                           ",
"                                     ...                   ",
"                       ...        ......                   ",
"                       ...        ......                   ",
"                       ...       .....                     ",
"                     ...        ......                     ",
"                     ...        .....                      ",
"                ........       ....                        ",
"                ......         ....                        ",
"                ......         ....                        ",
"             ...   ....     ......                         ",
"             ...    ...     ......                         ",
"             ...    ...     ......                         ",
"                ...   ...   ... ...                        ",
"                ...   ...   ... ...                        ",
"                ...   ...   ... ...                        ",
"                   ...............                         ",
"                   ...............                         ",
"                   ...............                         ",
"                ........................                   ",
"                .............Oo.O.......                   ",
"                ....X........+O.........                   ",
"                ...X...........OOo...   ...                ",
"                .X.X..XX.......OOO...   ...                ",
"                ..XX...........+OO...   ...                ",
"                ..XXX........O.......                      ",
"                .X..XXX..............                      ",
"                ..XXX........O.......                      ",
"                ..XX...........OOo...   ...                ",
"                .X.X..XX.......OOO...   ...                ",
"                ...X...........+OO...   ...                ",
"                ....X........Oo.........                   ",
"                .............+O.O.......                   ",
"                ........................                   ",
"                   ...............                         ",
"                ..................                         ",
"                ..................                         ",
"             ......   ...   ...   ...                      ",
"             ...      ...   ...   ...                      ",
"           .....      ...   ...   ...                      ",
"           ...        ...  ...       .........             ",
"           ...        ...  ...       .........             ",
"                      ...  ...       .........             ",
"                      ......                               ",
"                      ......                               ",
"                      ......                               ",
"                         .....                             ",
"                         .....                             ",
"                         .....                             ",
"                           ....                            ",
"                            .....                          ",
"                            .....                          ",
"                              ...                          ",
"                                                           ",
"                                                           ",
"                                                           "
};
