/* XPM */
static char *_7f3fd0654be4d84bedf65894734d79ex5gA2rS37fa2tZJ2[] = {
/* columns rows colors chars-per-pixel */
"59 59 6 1 ",
"  c None",
". c black",
"X c #B71C1C",
"o c #FFC107",
"O c #FFEB3B",
"+ c white",
/* pixels */
"                                                           ",
"                                                           ",
"                                                           ",
"                                                           ",
"                                                           ",
"                                                           ",
"                                                           ",
"                                                           ",
"                                                           ",
"                                                           ",
"                                                           ",
"                                                           ",
"                                                           ",
"             ...                           ...             ",
"             ...                           ...             ",
"             ...                           ...             ",
"          ...   ...   ...............   ...   ...          ",
"          ...   ...   ....X..X..X....   ...   ...          ",
"          ...   ...   .....XX.XX.....   ...   ...          ",
"                   ......XXXX.XXXX......                   ",
"                   .....X...XXX...X.....                   ",
"                   ..........X..........                   ",
"          ................X..X..X................          ",
"          ................X.....X................          ",
"          .......................................          ",
"       ...         .....................         ...       ",
"       ...         .....................         ...       ",
"       ...         .....................         ...       ",
"    ...      .................................      ...    ",
"    ...      ..........+O...O.O...+O..........      ...    ",
"    ...      ..........Oo.........Oo..........      ...    ",
"          ...      ......+OO...+OO......      ...          ",
"          ...      ....O.OOO...OOO.O....      ...          ",
"          ...      ......OOo...OOo......      ...          ",
"       ...      ...   ...............   ...      ...       ",
"       ...      ...   ...............   ...      ...       ",
"       ...      ...   ...............   ...      ...       ",
"    ...      ...      ...         ...      ...      ...    ",
"    ...      ...      ...         ...      ...      ...    ",
"    ...      ...      ...         ...      ...      ...    ",
"             ...         ...   ...         ...             ",
"             ...         ...   ...         ...             ",
"             ...         ...   ...         ...             ",
"             ...                           ...             ",
"             ...                           ...             ",
"             ...                           ...             ",
"                                                           ",
"                                                           ",
"                                                           ",
"                                                           ",
"                                                           ",
"                                                           ",
"                                                           ",
"                                                           ",
"                                                           ",
"                                                           ",
"                                                           ",
"                                                           ",
"                                                           "
};
