/* XPM */
static char *_81c1c8f611f4ce2b5103adccb81290110i27IJserjGjwVa[] = {
/* columns rows colors chars-per-pixel */
"59 59 6 1 ",
"  c None",
". c black",
"X c #B71C1C",
"o c #FFC107",
"O c #FFEB3B",
"+ c white",
/* pixels */
"                                                           ",
"                                                           ",
"                                                           ",
"                                                           ",
"                                                           ",
"                                                           ",
"                                                           ",
"                                                           ",
"                                                           ",
"                                                           ",
"                                                           ",
"              ...                                          ",
"              ...                                          ",
"              .....                        ...             ",
"                ...                        ...             ",
"                ...                        ...             ",
"                  ... ...............   ...   ...          ",
"                  ... ....X..X..X....   ...   ...          ",
"                  ... .....XX.XX.....   ...   ...          ",
"                   ......XXXX.XXXX......     ....          ",
"                   .....X...XXX...X.....   ......          ",
"                   ..........X..........   ........        ",
"          ................X..X..X.............  ...        ",
"          ................X.....X..........     ......     ",
"          .................................        ...     ",
"       ......      .....................           ...     ",
"       ......      .....................                   ",
"      ..........   .....................                   ",
"    ......   .................................             ",
"    ......   ..........+O...O.O...+O..........             ",
"   ....         .......Oo.........Oo..........             ",
"   ...             ......+OO...+OO......   ......          ",
"   ...             ....O.OOO...OOO.O...............        ",
"                   ......OOo...OOo..................       ",
"                ...   ...............   ...   ........     ",
"                ...   ...............            .....     ",
"                ...   ...............            .....     ",
"             ...      ...         ...             .....    ",
"             ...      ...         ...               ...    ",
"             ...      ...         ...               ...    ",
"             ...         ...   ...                         ",
"             ...         ...   ...                         ",
"             ...         ...   ...                         ",
"             ...                                           ",
"             ...                                           ",
"             ...                                           ",
"                                                           ",
"                                                           ",
"                                                           ",
"                                                           ",
"                                                           ",
"                                                           ",
"                                                           ",
"                                                           ",
"                                                           ",
"                                                           ",
"                                                           ",
"                                                           ",
"                                                           "
};
