/* XPM */
static char *_4119fdbe5994809e9afe3cf2bbb4b18SG1qboKmwep5pNOi[] = {
/* columns rows colors chars-per-pixel */
"59 59 6 1 ",
"  c None",
". c black",
"X c #B71C1C",
"o c #FFC107",
"O c #FFEB3B",
"+ c white",
/* pixels */
"                                                           ",
"                                                           ",
"                                                           ",
"                              ...                          ",
"                            .....                          ",
"                            .....                          ",
"                           ....                            ",
"                         .....                             ",
"                         .....                             ",
"                         .....                             ",
"                      ......                               ",
"                      ......                               ",
"                      ......                               ",
"                      ...  ...       .........             ",
"           ...        ...  ...       .........             ",
"           ...        ...  ...       .........             ",
"           .....      ...   ...   ...                      ",
"             ...      ...   ...   ...                      ",
"             ......   ...   ...   ...                      ",
"                ..................                         ",
"                ..................                         ",
"                   ...............                         ",
"                ........................                   ",
"                .............+O.O.......                   ",
"                ....X........Oo.........                   ",
"                ...X...........+OO...   ...                ",
"                .X.X..XX.......OOO...   ...                ",
"                ..XX...........OOo...   ...                ",
"                ..XXX........O.......                      ",
"                .X..XXX..............                      ",
"                ..XXX........O.......                      ",
"                ..XX...........+OO...   ...                ",
"                .X.X..XX.......OOO...   ...                ",
"                ...X...........OOo...   ...                ",
"                ....X........+O.........                   ",
"                .............Oo.O.......                   ",
"                ........................                   ",
"                   ...............                         ",
"                   ...............                         ",
"                   ...............                         ",
"                ...   ...   ... ...                        ",
"                ...   ...   ... ...                        ",
"                ...   ...   ... ...                        ",
"             ...    ...     ......                         ",
"             ...    ...     ......                         ",
"             ...   ....     ......                         ",
"                ......         ....                        ",
"                ......         ....                        ",
"                ........       ....                        ",
"                     ...        .....                      ",
"                     ...        ......                     ",
"                       ...       .....                     ",
"                       ...        ......                   ",
"                       ...        ......                   ",
"                                     ...                   ",
"                                                           ",
"                                                           ",
"                                                           ",
"                                                           "
};
