/* XPM */
static char *c3BpZGVyLWxlZnQtb25l[] = {
/* columns rows colors chars-per-pixel */
"59 59 6 1 ",
"  c black",
". c #B71C1C",
"X c #FFC107",
"o c #FFEB3B",
"O c white",
"+ c None",
/* pixels */
"+++++++++++++++++++++++++++++++++++++++++++++++++++++++++++",
"+++++++++++++++++++++++++++++++++++++++++++++++++++++++++++",
"+++++++++++++++++++++++++++++++++++++++++++++++++++++++++++",
"+++++++++++++++++++++++++++++++++++++++++++++++++++++++++++",
"+++++++++++++++++++   +++++++++++++++++++++++++++++++++++++",
"+++++++++++++++++++      ++++++++   +++++++++++++++++++++++",
"+++++++++++++++++++      ++++++++   +++++++++++++++++++++++",
"+++++++++++++++++++++     +++++++   +++++++++++++++++++++++",
"+++++++++++++++++++++      ++++++++   +++++++++++++++++++++",
"++++++++++++++++++++++     ++++++++   +++++++++++++++++++++",
"++++++++++++++++++++++++    +++++++        ++++++++++++++++",
"++++++++++++++++++++++++    +++++++++      ++++++++++++++++",
"++++++++++++++++++++++++    +++++++++      ++++++++++++++++",
"+++++++++++++++++++++++++      +++++    +++   +++++++++++++",
"+++++++++++++++++++++++++      +++++   ++++   +++++++++++++",
"+++++++++++++++++++++++++      +++++   ++++   +++++++++++++",
"++++++++++++++++++++++++   +   +++   +++   ++++++++++++++++",
"++++++++++++++++++++++++   +   +++   +++   ++++++++++++++++",
"++++++++++++++++++++++++   +   +++   +++   ++++++++++++++++",
"+++++++++++++++++++++++++               +++++++++++++++++++",
"+++++++++++++++++++++++++               +++++++++++++++++++",
"+++++++++++++++++++++++++               +++++++++++++++++++",
"+++++++++++++++++++                        ++++++++++++++++",
"+++++++++++++++++++       o Xo             ++++++++++++++++",
"+++++++++++++++++++         oO        .    ++++++++++++++++",
"++++++++++++++++   +++   Xoo           .   ++++++++++++++++",
"++++++++++++++++   +++   ooo       ..  . . ++++++++++++++++",
"++++++++++++++++   +++   ooO           ..  ++++++++++++++++",
"++++++++++++++++++++++       o        ...  ++++++++++++++++",
"++++++++++++++++++++++              ...  . ++++++++++++++++",
"++++++++++++++++++++++       o        ...  ++++++++++++++++",
"++++++++++++++++   +++   Xoo           ..  ++++++++++++++++",
"++++++++++++++++   +++   ooo       ..  . . ++++++++++++++++",
"++++++++++++++++   +++   ooO           .   ++++++++++++++++",
"+++++++++++++++++++         Xo        .    ++++++++++++++++",
"+++++++++++++++++++       o oO             ++++++++++++++++",
"+++++++++++++++++++                        ++++++++++++++++",
"+++++++++++++++++++++++++               +++++++++++++++++++",
"+++++++++++++++++++++++++                  ++++++++++++++++",
"+++++++++++++++++++++++++                  ++++++++++++++++",
"++++++++++++++++++++++   +++   +++   +++      +++++++++++++",
"++++++++++++++++++++++   +++   +++   ++++++   +++++++++++++",
"++++++++++++++++++++++   +++   +++   ++++++     +++++++++++",
"+++++++++++++         +++++++   ++   ++++++++   +++++++++++",
"+++++++++++++         +++++++   ++   ++++++++   +++++++++++",
"+++++++++++++         +++++++   ++   ++++++++++++++++++++++",
"+++++++++++++++++++++++++++++++      ++++++++++++++++++++++",
"+++++++++++++++++++++++++++++++      ++++++++++++++++++++++",
"+++++++++++++++++++++++++++++++      ++++++++++++++++++++++",
"+++++++++++++++++++++++++++++     +++++++++++++++++++++++++",
"+++++++++++++++++++++++++++++     +++++++++++++++++++++++++",
"+++++++++++++++++++++++++++++     +++++++++++++++++++++++++",
"++++++++++++++++++++++++++++    +++++++++++++++++++++++++++",
"++++++++++++++++++++++++++     ++++++++++++++++++++++++++++",
"++++++++++++++++++++++++++     ++++++++++++++++++++++++++++",
"++++++++++++++++++++++++++   ++++++++++++++++++++++++++++++",
"+++++++++++++++++++++++++++++++++++++++++++++++++++++++++++",
"+++++++++++++++++++++++++++++++++++++++++++++++++++++++++++",
"+++++++++++++++++++++++++++++++++++++++++++++++++++++++++++"
};
