/* XPM */
static char *a32ed1e397ba42dd807fb265b329902diRTtY658CdEmKLwI[] = {
/* columns rows colors chars-per-pixel */
"59 59 2 1 ",
"  c black",
". c white",
/* pixels */
"                                                           ",
"                                                           ",
"                                                .........  ",
"                                                .........  ",
"                                                ..     ..  ",
"                                                ..     ..  ",
"                                                ..     ..  ",
"                                                ..     ..  ",
"                                                ..     ..  ",
".........................................................  ",
".........................................................  ",
"                                                ..         ",
"                                                ..         ",
"                                                ..         ",
"                                                ..         ",
"                                                ..         ",
"                                                ..         ",
"                                                ..         ",
"                                                ..         ",
"                                                ..         ",
"                                                ..         ",
"                                                ..         ",
"                                                ..         ",
"                                                ..         ",
"                                                ..         ",
"                                                ..         ",
"                                                ..         ",
"                                                ..         ",
"                                                ..         ",
"                                                ..         ",
"                                                ..         ",
"                                                ..         ",
"                                                ..         ",
"                                                ..         ",
"                                                ..         ",
"                                                ..         ",
"                                                ..         ",
"                                                ..         ",
"                                                ..         ",
"                                                ..         ",
"                                                ..         ",
"                                                ..         ",
"                                                ..         ",
"                                                ..         ",
"                                                ..         ",
"                                                ..         ",
"                                                ..         ",
"                                                ..         ",
".........................................................  ",
".........................................................  ",
"                                                ..     ..  ",
"                                                ..     ..  ",
"                                                ..     ..  ",
"                                                ..     ..  ",
"                                                ..     ..  ",
"                                                .........  ",
"                                                .........  ",
"                                                           ",
"                                                           "
};
