/* XPM */
static char *_f4da2be34784c8bf61baa9073165f29iEVEkXEvlv0tcqXK[] = {
/* columns rows colors chars-per-pixel */
"59 59 2 1 ",
"  c black",
". c white",
/* pixels */
"                                                           ",
"                                                           ",
"  .........                                                ",
"  .........                                                ",
"  ..     ..                                                ",
"  ..     ..                                                ",
"  ..     ..                                                ",
"  ..     ..                                                ",
"  ..     ..                                                ",
"  .........................................................",
"  .........................................................",
"         ..                                                ",
"         ..                                                ",
"         ..                                                ",
"         ..                                                ",
"         ..                                                ",
"         ..                                                ",
"         ..                                                ",
"         ..                                                ",
"         ..                                                ",
"         ..                                                ",
"         ..                                                ",
"         ..                                                ",
"         ..                                                ",
"         ..                                                ",
"         ..                                                ",
"         ..                                                ",
"         ..                                                ",
"         ..                                                ",
"         ..                                                ",
"         ..                                                ",
"         ..                                                ",
"         ..                                                ",
"         ..                                                ",
"         ..                                                ",
"         ..                                                ",
"         ..                                                ",
"         ..                                                ",
"         ..                                                ",
"         ..                                                ",
"         ..                                                ",
"         ..                                                ",
"         ..                                                ",
"         ..                                                ",
"         ..                                                ",
"         ..                                                ",
"         ..                                                ",
"         ..                                                ",
"  .........................................................",
"  .........................................................",
"  ..     ..                                                ",
"  ..     ..                                                ",
"  ..     ..                                                ",
"  ..     ..                                                ",
"  ..     ..                                                ",
"  .........                                                ",
"  .........                                                ",
"                                                           ",
"                                                           "
};
