/* XPM */
static char *_48e6df4aeda4179c5d398222b2ce5c6w1xs9fRwjYJoGpW9[] = {
/* columns rows colors chars-per-pixel */
"59 59 6 1 ",
"  c None",
". c black",
"X c #FF9800",
"o c #FFEB3B",
"O c gray62",
"+ c white",
/* pixels */
"                                                           ",
"                                                           ",
"                                                           ",
"                                                           ",
"                                                           ",
"        .......                                            ",
"       ........                                            ",
"      ...      ..                       ..............     ",
"     ...       ..                       ..............     ",
"     ..        ....                 ....++++++++++++++..   ",
"    ..         ....                 ....++++++++++++++..   ",
"            ...........             ....++++++++++++++..   ",
"            ...........           ..++++++++++++++++++..   ",
"         ...ooooooooooo...        ..++++++++++++++++++..   ",
"         ...oooo...oooo...        ..++++++++++++++++++..   ",
"       ..oooooo.....oooo....   ...+++++++++++++++++...     ",
"       ..oooooo...+..oooo...   ...+++++++++++++++++...     ",
"       ..ooooo....++.oooo......+++++++++++++.......        ",
"       ..oooo........oooo......+++++++++++++.......        ",
"       ..ooo..O.....ooooo......+++++++++++++.......        ",
"      .ooooo......oooooo....................               ",
"      .ooooooooooooooooo....................               ",
"      .oooooooooooooooo.............                       ",
"      .oooooooooooooooo........o........                   ",
"      .oooooooooooooooX........o........                   ",
"       .......ooooooX.........o.....oo.....                ",
"       .....oo.ooooXX........oo.....oo.....                ",
"       .....ooooXXXX.........oo.....oo.....                ",
"            .................o....oooo.......              ",
"            .................o....oooo.......              ",
"            .................o....oo....ooo...             ",
"                    .......XX.....oo...oooo...             ",
"                   .......XXX.....o....ooooo..             ",
"                  ................o....oooo....            ",
"                  ..XXXXXX...XXooo....oo.......            ",
"                  .XXXXXXX...XXX....oooo.......            ",
"                  .XX......  ......ooo.....oo..            ",
"                  .XX....    .....XXoo...oooo..            ",
"                  ..X..      .....XXoo...oooo..            ",
"                   ...         .........oooo...            ",
"                               .......ooooo....            ",
"                                  ..XXXo.....              ",
"                                  ..XXXX.....              ",
"                                  ..XXXX.....              ",
"                                  ......ooo..              ",
"                                  ......ooo..              ",
"                                   ...Xo...                ",
"                                   ...XX...                ",
"                                   ...XX...                ",
"                                    .....                  ",
"                                    .....                  ",
"                                   .....                   ",
"                                  .....                    ",
"                               . ......                    ",
"                                ....                       ",
"                                                           ",
"                                                           ",
"                                                           ",
"                                                           "
};
