/* XPM */
static char *_726228e0e6744dfb7f951015d702a7d0VfvvZXbI7n9jqZE[] = {
/* columns rows colors chars-per-pixel */
"59 59 6 1 ",
"  c None",
". c black",
"X c #FF9800",
"o c #FFEB3B",
"O c gray62",
"+ c white",
/* pixels */
"                                                           ",
"                                                           ",
"                                                           ",
"                                                           ",
"                                                           ",
"                                            .......        ",
"                                            ........       ",
"     ..............                       ..      ...      ",
"     ..............                       ..       ...     ",
"   ..++++++++++++++....                 ....        ..     ",
"   ..++++++++++++++....                 ....         ..    ",
"   ..++++++++++++++....             ...........            ",
"   ..++++++++++++++++++..           ...........            ",
"   ..++++++++++++++++++..        ...ooooooooooo...         ",
"   ..++++++++++++++++++..        ...oooo...oooo...         ",
"     ...+++++++++++++++++...   ....oooo.....oooooo..       ",
"     ...+++++++++++++++++...   ...oooo..+...oooooo..       ",
"        .......+++++++++++++......oooo.++....ooooo..       ",
"        .......+++++++++++++......oooo........oooo..       ",
"        .......+++++++++++++......ooooo.....O..ooo..       ",
"               ....................oooooo......ooooo.      ",
"               ....................ooooooooooooooooo.      ",
"                       .............oooooooooooooooo.      ",
"                   ........o........oooooooooooooooo.      ",
"                   ........o........Xooooooooooooooo.      ",
"                .....oo.....o.........Xoooooo.......       ",
"                .....oo.....oo........XXoooo.oo.....       ",
"                .....oo.....oo.........XXXXoooo.....       ",
"              .......oooo....o.................            ",
"              .......oooo....o.................            ",
"             ...ooo....oo....o.................            ",
"             ...oooo...oo.....XX.......                    ",
"             ..ooooo....o.....XXX.......                   ",
"            ....oooo....o................                  ",
"            .......oo....oooXX...XXXXXX..                  ",
"            .......oooo....XXX...XXXXXXX.                  ",
"            ..oo.....ooo......  ......XX.                  ",
"            ..oooo...ooXX.....    ....XX.                  ",
"            ..oooo...ooXX.....      ..X..                  ",
"            ...oooo.........         ...                   ",
"            ....ooooo.......                               ",
"              .....oXXX..                                  ",
"              .....XXXX..                                  ",
"              .....XXXX..                                  ",
"              ..ooo......                                  ",
"              ..ooo......                                  ",
"                ...oX...                                   ",
"                ...XX...                                   ",
"                ...XX...                                   ",
"                  .....                                    ",
"                  .....                                    ",
"                   .....                                   ",
"                    .....                                  ",
"                    ...... .                               ",
"                       ....                                ",
"                                                           ",
"                                                           ",
"                                                           ",
"                                                           "
};
