/* XPM */
static char *_6df27810e084184fa29a424362d967frVo7ZkbX6M8u9dUb[] = {
/* columns rows colors chars-per-pixel */
"59 59 6 1 ",
"  c None",
". c black",
"X c #FF9800",
"o c #FFEB3B",
"O c gray62",
"+ c white",
/* pixels */
"                                                           ",
"                                     ............          ",
"                                     ............          ",
"                                   ..++++++++++++..        ",
"                                   ..++++++++++++..        ",
"        .......                    ..++++++++++++..        ",
"       ........                   ..+++++++++++++..        ",
"      ...      ..                 ..+++++++++++++..        ",
"     ...       ..                 ..+++++++++++++..        ",
"     ..        ....             ..+++++++++++++++..        ",
"    ..         ....             ..+++++++++++++++..        ",
"            ...........         ..+++++++++++++++..        ",
"            ...........      ...+++++++++++++++..          ",
"         ...ooooooooooo...   ...+++++++++++++++..          ",
"         ...oooo...oooo...   ..+++++++++++.....            ",
"       ..oooooo.....oooo.......+++++++++++.....            ",
"       ..oooooo...+..oooo......+++++++++++.....            ",
"       ..ooooo....++.oooo......+++++++++..                 ",
"       ..oooo........oooo........+++++....                 ",
"       ..ooo..O.....ooooo........+++++...                  ",
"      .ooooo......oooooo..............                     ",
"      .ooooooooooooooooo..............                     ",
"      .oooooooooooooooo.............                       ",
"      .oooooooooooooooo........o........                   ",
"      .oooooooooooooooX........o........                   ",
"       .......ooooooX.........o.....oo.....                ",
"       .....oo.ooooXX........oo.....oo.....                ",
"       .....ooooXXXX.........oo.....oo.....                ",
"            .................o....oooo.......              ",
"            .................o....oooo.......              ",
"            .................o....oo....ooo...             ",
"                    .......XX.....oo...oooo....            ",
"                   .......XXX.....o....oooo....            ",
"                  ................o....ooo.....            ",
"                  ..XXXXXX...XXXXX....ooo.......           ",
"                  .XXXXXXX...XXX....oooo........           ",
"                  .XX......  .....XXX.......oo..           ",
"                  .XX....    ....XX......ooooo..           ",
"                  ..X..      ........XXooooooo..           ",
"                   ...          ........Xooooo..           ",
"                                ...XX...........           ",
"                                 ...XXX.........           ",
"                                   ..Xoooooo....           ",
"                                   ...Xoooo....            ",
"                                    ...XXoo...             ",
"                                    .........              ",
"                                    .XX.....               ",
"                                   ..X......               ",
"                                  .........                ",
"                             .  .........                  ",
"                              ........                     ",
"                               ....                        ",
"                                                           ",
"                                                           ",
"                                                           ",
"                                                           ",
"                                                           ",
"                                                           ",
"                                                           "
};
