/* XPM */
static char *bba691e462964cb4fa68a023d22b45c9qHJPx1LKHjGJJRVx[] = {
/* columns rows colors chars-per-pixel */
"59 59 6 1 ",
"  c None",
". c black",
"X c #FF9800",
"o c #FFEB3B",
"O c gray62",
"+ c white",
/* pixels */
"                                                           ",
"          ............                                     ",
"          ............                                     ",
"        ..++++++++++++..                                   ",
"        ..++++++++++++..                                   ",
"        ..++++++++++++..                    .......        ",
"        ..+++++++++++++..                   ........       ",
"        ..+++++++++++++..                 ..      ...      ",
"        ..+++++++++++++..                 ..       ...     ",
"        ..+++++++++++++++..             ....        ..     ",
"        ..+++++++++++++++..             ....         ..    ",
"        ..+++++++++++++++..         ...........            ",
"          ..+++++++++++++++...      ...........            ",
"          ..+++++++++++++++...   ...ooooooooooo...         ",
"            .....+++++++++++..   ...oooo...oooo...         ",
"            .....+++++++++++.......oooo.....oooooo..       ",
"            .....+++++++++++......oooo..+...oooooo..       ",
"                 ..+++++++++......oooo.++....ooooo..       ",
"                 ....+++++........oooo........oooo..       ",
"                  ...+++++........ooooo.....O..ooo..       ",
"                     ..............oooooo......ooooo.      ",
"                     ..............ooooooooooooooooo.      ",
"                       .............oooooooooooooooo.      ",
"                   ........o........oooooooooooooooo.      ",
"                   ........o........Xooooooooooooooo.      ",
"                .....oo.....o.........Xoooooo.......       ",
"                .....oo.....oo........XXoooo.oo.....       ",
"                .....oo.....oo.........XXXXoooo.....       ",
"              .......oooo....o.................            ",
"              .......oooo....o.................            ",
"             ...ooo....oo....o.................            ",
"            ....oooo...oo.....XX.......                    ",
"            ....oooo....o.....XXX.......                   ",
"            .....ooo....o................                  ",
"           .......ooo....XXXXX...XXXXXX..                  ",
"           ........oooo....XXX...XXXXXXX.                  ",
"           ..oo.......XXX.....  ......XX.                  ",
"           ..ooooo......XX....    ....XX.                  ",
"           ..oooooooXX........      ..X..                  ",
"           ..oooooX........          ...                   ",
"           ...........XX...                                ",
"           .........XXX...                                 ",
"           ....ooooooX..                                   ",
"            ....ooooX...                                   ",
"             ...ooXX...                                    ",
"              .........                                    ",
"               .....XX.                                    ",
"               ......X..                                   ",
"                .........                                  ",
"                  .........  .                             ",
"                     ........                              ",
"                        ....                               ",
"                                                           ",
"                                                           ",
"                                                           ",
"                                                           ",
"                                                           ",
"                                                           ",
"                                                           "
};
